<?xml version="1.0" standalone="no"?>
<!DOCTYPE svg PUBLIC "-//W3C//DTD SVG 20010904//EN"
 "http://www.w3.org/TR/2001/REC-SVG-20010904/DTD/svg10.dtd">
<svg version="1.0" xmlns="http://www.w3.org/2000/svg"
 width="500.000000pt" height="500.000000pt" viewBox="0 0 500.000000 500.000000"
 preserveAspectRatio="xMidYMid meet">

<g transform="translate(0.000000,500.000000) scale(0.100000,-0.100000)"
fill="#000000" stroke="none">
<path d="M2340 3774 c-392 -71 -655 -227 -876 -519 -89 -116 -168 -289 -211
-462 -25 -98 -28 -125 -28 -293 0 -168 3 -195 28 -293 32 -127 82 -254 139
-352 180 -307 485 -529 834 -607 142 -32 406 -32 548 0 305 68 565 237 762
497 85 111 169 295 209 455 33 129 44 347 26 467 -77 495 -383 874 -839 1038
-144 52 -228 67 -402 70 -91 2 -176 1 -190 -1z m473 -52 c559 -145 947 -648
947 -1227 0 -331 -133 -648 -370 -885 -163 -163 -357 -274 -578 -333 -112 -29
-125 -31 -312 -31 -187 0 -200 2 -312 31 -460 123 -803 474 -919 943 -31 127
-34 398 -6 530 90 415 364 750 747 913 173 73 308 97 520 93 145 -3 179 -7
283 -34z"/>
<path d="M2020 2500 l0 -590 205 0 205 0 0 590 0 590 -205 0 -205 0 0 -590z"/>
<path d="M2570 2500 l0 -590 205 0 205 0 0 590 0 590 -205 0 -205 0 0 -590z"/>
</g>
</svg>
